<svg width="42" height="42" viewBox="0 0 42 42" fill="none" xmlns="http://www.w3.org/2000/svg">
<rect width="42" height="42" rx="21" fill="#FBFCFF"/>
<path d="M15.75 26.25L20.7644 26.2328L31.7091 15.321C32.1387 14.8886 32.375 14.3144 32.375 13.7037C32.375 13.0929 32.1387 12.5187 31.7091 12.0863L29.907 10.2722C29.048 9.40753 27.5492 9.41211 26.697 10.2688L15.75 21.183V26.25ZM28.3003 11.8896L30.1058 13.7002L28.2912 15.5097L26.489 13.6968L28.3003 11.8896ZM18.0226 22.1369L24.8744 15.305L26.6765 17.119L19.8259 23.9487L18.0226 23.9544V22.1369Z" fill="#0A0A27"/>
<path d="M12.8333 31.5H29.1667C30.4535 31.5 31.5 30.4535 31.5 29.1667V19.054L29.1667 21.3873V29.1667H16.5177C16.4873 29.1667 16.4558 29.1783 16.4255 29.1783C16.387 29.1783 16.3485 29.1678 16.3088 29.1667H12.8333V12.8333H20.8215L23.1548 10.5H12.8333C11.5465 10.5 10.5 11.5465 10.5 12.8333V29.1667C10.5 30.4535 11.5465 31.5 12.8333 31.5Z" fill="#0A0A27"/>
</svg>
