<svg width="24" height="21" viewBox="0 0 24 21" fill="none" xmlns="http://www.w3.org/2000/svg">
<path d="M0 3C0 2.20435 0.316071 1.44129 0.87868 0.87868C1.44129 0.316071 2.20435 0 3 0H21C21.7956 0 22.5587 0.316071 23.1213 0.87868C23.6839 1.44129 24 2.20435 24 3V18C24 18.7956 23.6839 19.5587 23.1213 20.1213C22.5587 20.6839 21.7956 21 21 21H3C2.20435 21 1.44129 20.6839 0.87868 20.1213C0.316071 19.5587 0 18.7956 0 18V3ZM1.5 16.5V18C1.5 18.3978 1.65804 18.7794 1.93934 19.0607C2.22064 19.342 2.60218 19.5 3 19.5H21C21.3978 19.5 21.7794 19.342 22.0607 19.0607C22.342 18.7794 22.5 18.3978 22.5 18V12.75L16.8345 9.8295C16.6938 9.75904 16.5346 9.73459 16.3792 9.75963C16.2239 9.78466 16.0804 9.85791 15.969 9.969L10.404 15.534L6.414 12.876C6.26994 12.7801 6.09714 12.737 5.92491 12.7539C5.75267 12.7709 5.5916 12.8468 5.469 12.969L1.5 16.5ZM9 6.75C9 6.15326 8.76295 5.58097 8.34099 5.15901C7.91903 4.73705 7.34674 4.5 6.75 4.5C6.15326 4.5 5.58097 4.73705 5.15901 5.15901C4.73705 5.58097 4.5 6.15326 4.5 6.75C4.5 7.34674 4.73705 7.91903 5.15901 8.34099C5.58097 8.76295 6.15326 9 6.75 9C7.34674 9 7.91903 8.76295 8.34099 8.34099C8.76295 7.91903 9 7.34674 9 6.75Z" fill="#464C80"/>
</svg>
