<svg width="28" height="20" viewBox="0 0 28 20" fill="none" xmlns="http://www.w3.org/2000/svg">
<path d="M19 20H2C1.46957 20 0.960859 19.7893 0.585786 19.4142C0.210714 19.0391 0 18.5304 0 18V2C0 1.46957 0.210714 0.960859 0.585786 0.585786C0.960859 0.210714 1.46957 0 2 0H19C19.5304 0 20.0391 0.210714 20.4142 0.585786C20.7893 0.960859 21 1.46957 21 2V6.06L26.42 2.19C26.5693 2.08373 26.7448 2.02051 26.9276 2.00724C27.1103 1.99396 27.2932 2.03115 27.4562 2.11473C27.6193 2.19832 27.7562 2.32509 27.8521 2.4812C27.948 2.63732 27.9992 2.81678 28 3V17C27.9992 17.1832 27.948 17.3627 27.8521 17.5188C27.7562 17.6749 27.6193 17.8017 27.4562 17.8853C27.2932 17.9689 27.1103 18.006 26.9276 17.9928C26.7448 17.9795 26.5693 17.9163 26.42 17.81L21 13.94V18C21 18.5304 20.7893 19.0391 20.4142 19.4142C20.0391 19.7893 19.5304 20 19 20Z" fill="#464C80"/>
</svg>
